<?xml version="1.0" encoding="UTF-8"?>
<svg width="512px" height="512px" viewBox="0 0 512 512" version="1.1" xmlns="http://www.w3.org/2000/svg" xmlns:xlink="http://www.w3.org/1999/xlink">
    <!-- Generator: Sketch 59.1 (86144) - https://sketch.com -->
    <title>add</title>
    <desc>Created with Sketch.</desc>
    <g id="Page-1" stroke="none" stroke-width="1" fill="none" fill-rule="evenodd">
        <g id="Artboard" transform="translate(-99.000000, -61.000000)" fill="#222222" fill-rule="nonzero">
            <g id="add" transform="translate(99.000000, 61.000000)">
                <path d="M256,0 C114.843961,0 0,114.843961 0,256 C0,397.156039 114.843961,512 256,512 C397.156039,512 512,397.156039 512,256 C512,114.843961 397.156039,0 256,0 Z M256,480.000581 C132.48475,480.000581 32.0003484,379.516179 32.0003484,256.000929 C32.0003484,132.485679 132.48475,32.0003484 256,32.0003484 C379.51525,32.0003484 480.000581,132.48475 480.000581,256 C480.000581,379.51525 379.51525,480.000581 256,480.000581 Z" id="Shape"></path>
                <polygon id="Path" points="272.000174 128.000465 239.999826 128.000465 239.999826 240.000755 127.999535 240.000755 127.999535 272.001103 239.999826 272.001103 239.999826 384.001394 272.000174 384.001394 272.000174 272.001103 384.000465 272.001103 384.000465 240.000755 272.000174 240.000755"></polygon>
            </g>
        </g>
    </g>
</svg>