<svg height="512pt" viewBox="-11 0 512 512" width="512pt" xmlns="http://www.w3.org/2000/svg"><path d="m245.332031 405.332031c-5.886719 0-10.664062-4.777343-10.664062-10.664062v-384c0-5.890625 4.777343-10.667969 10.664062-10.667969 5.890625 0 10.667969 4.777344 10.667969 10.667969v384c0 5.886719-4.777344 10.664062-10.667969 10.664062zm0 0"/><path d="m245.332031 405.332031c-2.730469 0-5.460937-1.042969-7.550781-3.113281l-128-128c-4.160156-4.160156-4.160156-10.921875 0-15.082031 4.160156-4.160157 10.921875-4.160157 15.082031 0l120.46875 120.449219 120.449219-120.449219c4.160156-4.160157 10.921875-4.160157 15.082031 0 4.160157 4.160156 4.160157 10.921875 0 15.082031l-128 128c-2.070312 2.070312-4.800781 3.113281-7.53125 3.113281zm0 0"/><path d="m480 512h-469.332031c-5.890625 0-10.667969-4.777344-10.667969-10.667969v-106.664062c0-5.890625 4.777344-10.667969 10.667969-10.667969 5.886719 0 10.664062 4.777344 10.664062 10.667969v96h448v-96c0-5.890625 4.78125-10.667969 10.667969-10.667969s10.667969 4.777344 10.667969 10.667969v106.664062c0 5.890625-4.78125 10.667969-10.667969 10.667969zm0 0"/></svg>