<?xml version="1.0" encoding="UTF-8"?>
<svg width="558px" height="558px" viewBox="0 0 558 558" version="1.1" xmlns="http://www.w3.org/2000/svg" xmlns:xlink="http://www.w3.org/1999/xlink">
    <!-- Generator: Sketch 59.1 (86144) - https://sketch.com -->
    <title>Artboard</title>
    <desc>Created with Sketch.</desc>
    <g id="Artboard" stroke="none" stroke-width="1" fill="none" fill-rule="evenodd">
        <g id="journey-grey" fill="#CCCCCC" fill-rule="nonzero">
            <path d="M102.5,521 C105.325484,521 108.000821,519.714892 109.76618,517.5125 C113.683638,512.676319 205,398.315381 205,344.3 C205,287.800684 159.109774,242 102.5,242 C45.8902261,242 0,287.800684 0,344.3 C0,398.315381 91.3163624,512.630908 95.2338204,517.5125 C96.9991791,519.714892 99.6745164,521 102.5,521 Z M102.5,260.6 C148.795166,260.649951 186.313587,298.095166 186.363636,344.3 C186.363636,380.38291 131.282627,459.283056 102.5,496.623828 C73.7173734,459.29668 18.6363636,380.401075 18.6363636,344.3 C18.6864128,298.095166 56.2048337,260.649951 102.5,260.6 Z" id="Shape"></path>
            <path d="M139,335 C139,314.566895 122.433105,298 102,298 C81.5668945,298 65,314.566895 65,335 C65,355.433105 81.5668945,372 102,372 C122.433105,372 139,355.433105 139,335 Z M83.5,335 C83.5,324.783447 91.7834467,316.5 102,316.5 C112.216553,316.5 120.5,324.783447 120.5,335 C120.5,345.216553 112.216553,353.5 102,353.5 C91.7834467,353.5 83.5,345.216553 83.5,335 Z" id="Shape"></path>
            <path d="M483.5,195 C486.21463,195 488.7883,193.82115 490.557129,191.76723 C497.46875,183.773717 558,112.525809 558,74.2857143 C558,33.257185 524.646881,0 483.5,0 C442.353119,0 409,33.257185 409,74.2857143 C409,112.525809 469.53125,183.773717 476.442871,191.76723 C478.2117,193.82115 480.78537,195 483.5,195 Z M483.5,18.5714286 C514.347656,18.6031671 539.34317,43.5267857 539.375,74.2857143 C539.375,97.8173834 503.821075,146.304408 483.5,171.21896 C463.16983,146.304408 427.625,97.8627232 427.625,74.2857143 C427.65683,43.5267857 452.652344,18.6031671 483.5,18.5714286 Z" id="Shape"></path>
            <path d="M512,65 C512,49.5371097 499.46289,37 484,37 C468.53711,37 456,49.5371097 456,65 C456,80.4628903 468.53711,93 484,93 C499.46289,93 512,80.4628903 512,65 Z M474.666667,65 C474.666667,59.8457028 478.845703,55.6666667 484,55.6666667 C489.154297,55.6666667 493.333333,59.8457028 493.333333,65 C493.333333,70.1542972 489.154297,74.3333333 484,74.3333333 C478.845703,74.3333333 474.666667,70.1542972 474.666667,65 Z" id="Shape"></path>
            <path d="M474.333333,233 L483.666667,233 C488.820964,233 493,228.746338 493,223.5 C493,218.253662 488.820964,214 483.666667,214 L474.333333,214 C469.179036,214 465,218.253662 465,223.5 C465,228.746338 469.179036,233 474.333333,233 Z" id="Path"></path>
            <path d="M353.253549,289 L371.818431,289 C376.888917,289 381,284.746335 381,279.5 C381,274.253661 376.888917,270 371.818431,270 L353.105604,270 C350.680198,270.004638 348.353424,271.01123 346.64533,272.792479 C344.937234,274.573729 343.982315,276.990477 343.999759,279.5 C344.031631,284.760252 348.169613,289.004635 353.253549,289 L353.253549,289 Z" id="Path"></path>
            <path d="M457,279.5 C457,284.746338 461.214562,289 466.412675,289 L485.587325,289 C490.785438,289 495,284.746338 495,279.5 C495,274.253662 490.785438,270 485.587325,270 L466.412675,270 C461.214562,270 457,274.253662 457,279.5 Z" id="Path"></path>
            <path d="M417.411537,233 L436.588463,233 C441.785947,233 446,228.746338 446,223.5 C446,218.253662 441.785947,214 436.588463,214 L417.411537,214 C412.209457,214 408,218.253662 408,223.5 C408,228.746338 412.209457,233 417.411537,233 Z" id="Path"></path>
            <path d="M169.589601,539 L150.410399,539 C145.213544,539 141,543.253662 141,548.5 C141,553.746338 145.213544,558 150.410399,558 L169.589601,558 C174.786457,558 179,553.746338 179,548.5 C179,543.253662 174.786457,539 169.589601,539 Z" id="Path"></path>
            <path d="M326.051465,266 C326.711621,266 327.367161,265.931979 328.00885,265.795936 C333.114671,264.739343 336.383134,259.823688 335.316728,254.808268 C335.048973,253.538542 334.915095,252.250678 334.910479,250.953742 C334.905862,248.015233 335.612183,245.12207 336.969426,242.500992 C339.337677,237.929978 337.486471,232.338647 332.828449,230.012327 C328.175043,227.686007 322.482932,229.504437 320.114681,234.079986 C316.195294,241.639392 315.031944,250.296206 316.813902,258.599309 C317.723347,262.898239 321.578103,265.99093 326.051465,266 L326.051465,266 Z" id="Path"></path>
            <path d="M410.410399,289 L429.589601,289 C434.786457,289 439,284.746338 439,279.5 C439,274.253662 434.786457,270 429.589601,270 L410.410399,270 C405.213543,270 401,274.253662 401,279.5 C401,284.746338 405.213543,289 410.410399,289 Z" id="Path"></path>
            <path d="M360.410399,233 L379.589601,233 C384.786456,233 389,228.746338 389,223.5 C389,218.253662 384.786456,214 379.589601,214 L360.410399,214 C355.213544,214 351,218.253662 351,223.5 C351,228.746338 355.213544,233 360.410399,233 Z" id="Path"></path>
            <path d="M268.980715,394.714664 C269.708909,394.907957 270.464074,395 271.214744,395 C275.440069,394.990796 279.117001,392.045385 280.137373,387.852777 C281.328556,383.006656 283.571574,378.496496 286.700113,374.658258 C288.911666,372.090227 289.585921,368.500508 288.471154,365.278965 C287.356387,362.05282 284.618915,359.701093 281.32406,359.13042 C278.0337,358.564349 274.693894,359.866773 272.608202,362.536051 C267.677157,368.560336 264.144066,375.647731 262.278629,383.273585 C261.680791,385.698945 262.053878,388.271578 263.312486,390.416206 C264.566598,392.565434 266.607341,394.111775 268.980715,394.714664 L268.980715,394.714664 Z" id="Path"></path>
            <path d="M452.679217,539.07747 C450.707294,539.339906 448.721926,539.471124 446.732077,539.466599 L435.178404,539.466599 C430.105183,539.466599 426,543.6158 426,548.7333 C426,553.850799 430.105183,558 435.178404,558 L446.732077,558 C449.492769,558 452.253461,557.81901 454.991744,557.461554 C460.020147,556.805464 463.569608,552.15854 462.924251,547.081764 C462.274413,542.004987 457.671766,538.42138 452.643364,539.07747 L452.679217,539.07747 Z" id="Path"></path>
            <path d="M465.453112,430.786211 C459.353486,428.925809 453.010776,427.986533 446.636555,427.999857 L444.219213,427.999857 C439.127938,427.999857 435,432.161092 435,437.293078 C435,442.425064 439.127938,446.586011 444.219213,446.586011 L446.636555,446.586011 C451.192143,446.586011 455.725223,447.262108 460.087242,448.591614 C460.956045,448.863869 461.860861,449.000005 462.770177,449.000005 C467.33927,449.004533 471.224124,445.633123 471.899359,441.077407 C472.570092,436.517155 469.828637,432.152018 465.453112,430.817973 L465.453112,430.786211 Z" id="Path"></path>
            <path d="M445.587325,363 C450.785438,363 455,358.746338 455,353.5 C455,348.253662 450.785438,344 445.587325,344 L426.412675,344 C421.214562,344 417,348.253662 417,353.5 C417,358.746338 421.214562,363 426.412675,363 L445.587325,363 Z" id="Path"></path>
            <path d="M500.567366,507.813711 C495.937473,505.729472 490.489482,507.78676 488.399287,512.413411 C486.255151,517.170328 483.310899,521.527465 479.70138,525.296165 C477.336987,527.654409 476.437978,531.104185 477.350472,534.311398 C478.262966,537.523102 480.843121,539.989153 484.088541,540.752774 C487.338457,541.520888 490.750193,540.469785 493.002211,538.008227 C498.063628,532.734743 502.190077,526.630257 505.192766,519.968779 C507.269475,515.337635 505.201755,509.89795 500.567366,507.813711 L500.567366,507.813711 Z" id="Path"></path>
            <path d="M549.399212,317.385564 C547.057477,316.679393 544.535953,316.949938 542.387489,318.142178 C540.24352,319.334417 538.647903,321.347467 537.95572,323.736531 C536.602816,328.340409 534.130735,332.522417 530.768703,335.888201 C527.132495,339.519945 527.069569,345.467384 530.629367,349.177082 C534.189165,352.886781 540.018784,352.946393 543.654992,349.319234 C549.264371,343.711124 553.381512,336.74111 555.61987,329.060337 C556.316548,326.671274 556.046866,324.098789 554.88274,321.906902 C553.714119,319.719602 551.740948,318.091736 549.399212,317.385564 L549.399212,317.385564 Z" id="Path"></path>
            <path d="M538.756818,301 C542.405062,301.004539 545.710577,298.840509 547.198737,295.485354 C548.682385,292.130198 548.073593,288.206758 545.638424,285.469896 C540.366735,279.55973 533.692569,275.099828 526.242757,272.508447 C521.417515,270.835416 516.163864,273.426797 514.504342,278.291317 C512.844819,283.155839 515.415276,288.452256 520.240517,290.125288 C524.714012,291.675569 528.718511,294.35333 531.875212,297.908522 C533.629436,299.877061 536.132247,301 538.756818,301 Z" id="Path"></path>
            <path d="M406.587325,428 L387.412675,428 C382.214563,428 378,432.253662 378,437.5 C378,442.746338 382.214563,447 387.412675,447 L406.587325,447 C411.785437,447 416,442.746338 416,437.5 C416,432.253662 411.785437,428 406.587325,428 Z" id="Path"></path>
            <path d="M502.589601,344 L483.410399,344 C478.213543,344 474,348.253662 474,353.5 C474,358.746338 478.213543,363 483.410399,363 L502.589601,363 C507.786457,363 512,358.746338 512,353.5 C512,348.253662 507.786457,344 502.589601,344 Z" id="Path"></path>
            <path d="M226.587325,539 L207.412675,539 C202.214563,539 198,543.253662 198,548.5 C198,553.746338 202.214563,558 207.412675,558 L226.587325,558 C231.785437,558 236,553.746338 236,548.5 C236,543.253662 231.785437,539 226.587325,539 Z" id="Path"></path>
            <path d="M500.313847,456.04038 C497.359454,451.813659 491.459916,450.728726 487.132355,453.617362 C482.809418,456.505997 481.699787,462.274226 484.654179,466.505466 C487.677924,470.836159 489.920303,475.641511 491.279601,480.713574 C492.019356,484.027143 494.553012,486.680708 497.886529,487.630026 C501.215422,488.579342 504.807853,487.67071 507.253664,485.261254 C509.694852,482.856318 510.596428,479.334805 509.602383,476.084525 C507.706764,468.933006 504.567433,462.152171 500.313847,456.04038 L500.313847,456.04038 Z" id="Path"></path>
            <path d="M296.992178,424.681988 C292.570123,422.508588 288.70253,419.389647 285.662083,415.549227 C282.508018,411.543001 276.658909,410.821522 272.600436,413.9315 C268.537417,417.036998 267.805711,422.80435 270.955231,426.810576 C275.722688,432.842322 281.80358,437.740313 288.752522,441.137091 C293.338187,443.247754 298.796448,441.356671 301.037016,436.879916 C303.277584,432.407641 301.477858,426.985344 296.992178,424.681988 L296.992178,424.681988 Z" id="Path"></path>
            <path d="M283.59415,539 L264.40585,539 C259.211506,539 255,543.253662 255,548.5 C255,553.746338 259.211506,558 264.40585,558 L283.59415,558 C288.788494,558 293,553.746338 293,548.5 C293,543.253662 288.788494,539 283.59415,539 Z" id="Path"></path>
            <path d="M396.587325,539 L377.412675,539 C372.214562,539 368,543.253662 368,548.5 C368,553.746338 372.214562,558 377.412675,558 L396.587325,558 C401.785438,558 406,553.746338 406,548.5 C406,543.253662 401.785438,539 396.587325,539 Z" id="Path"></path>
            <path d="M331.587325,363 C336.785437,363 341,358.746338 341,353.5 C341,348.253662 336.785437,344 331.587325,344 L312.412675,344 C307.214562,344 303,348.253662 303,353.5 C303,358.746338 307.214562,363 312.412675,363 L331.587325,363 Z" id="Path"></path>
            <path d="M388.598695,363 C393.790528,363 398,358.746338 398,353.5 C398,348.253662 393.790528,344 388.598695,344 L369.401305,344 C364.209471,344 360,348.253662 360,353.5 C360,358.746338 364.209471,363 369.401305,363 L388.598695,363 Z" id="Path"></path>
            <path d="M349.588463,428 L330.411537,428 C325.214052,428 321,432.253662 321,437.5 C321,442.746338 325.214052,447 330.411537,447 L349.588463,447 C354.790543,447 359,442.746338 359,437.5 C359,432.253662 354.790543,428 349.588463,428 Z" id="Path"></path>
            <path d="M339.589601,539 L320.410399,539 C315.213544,539 311,543.253662 311,548.5 C311,553.746338 315.213544,558 320.410399,558 L339.589601,558 C344.786456,558 349,553.746338 349,548.5 C349,543.253662 344.786456,539 339.589601,539 Z" id="Path"></path>
            <path d="M111.666667,539 L102.333333,539 C97.1790362,539 93,543.253662 93,548.5 C93,553.746338 97.1790362,558 102.333333,558 L111.666667,558 C116.820964,558 121,553.746338 121,548.5 C121,543.253662 116.820964,539 111.666667,539 Z" id="Path"></path>
        </g>
    </g>
</svg>