<?xml version="1.0" encoding="UTF-8"?>
<svg width="1024px" height="1024px" viewBox="0 0 1024 1024" version="1.1" xmlns="http://www.w3.org/2000/svg" xmlns:xlink="http://www.w3.org/1999/xlink">
    <!-- Generator: Sketch 59.1 (86144) - https://sketch.com -->
    <title>icon</title>
    <desc>Created with Sketch.</desc>
    <defs>
        <path d="M509.564541,637 C479.256458,637 451.11366,631.771883 425.135303,621.315493 C399.156946,610.859103 378.23025,595.625452 362.354588,575.614085 C346.478925,555.602717 338.360811,531.895912 338,504.492958 C338,501.247871 339.172617,498.453533 341.517885,496.109859 C343.863153,493.766185 346.659409,492.594366 349.906687,492.594366 L460.314152,492.594366 C466.087121,492.594366 470.506983,493.946465 473.573872,496.650704 C476.640762,499.354943 479.617404,503.7718 482.503888,509.901408 C486.111993,517.833842 490.171051,523.422535 494.681182,526.667606 C499.191313,529.912676 505.595604,531.535211 513.894246,531.535211 C524.357751,531.535211 532.295463,528.200033 537.707621,521.529577 C543.119778,514.859122 545.825816,503.591629 545.825816,487.726761 L545.825816,362.791549 L385.085537,362.791549 C381.116621,362.791549 377.688972,361.34931 374.802488,358.464789 C371.916004,355.580267 370.472784,352.154949 370.472784,348.188732 L370.472784,267.602817 C370.472784,263.6366 371.916004,260.211282 374.802488,257.326761 C377.688972,254.442239 381.116621,253 385.085537,253 L671.387247,253 C675.356163,253 678.783811,254.442239 681.670295,257.326761 C684.55678,260.211282 686,263.6366 686,267.602817 L686,492.053521 C686,524.143822 678.332892,551.095666 662.998445,572.909859 C647.663998,594.724053 626.737302,610.859103 600.217729,621.315493 C573.698157,631.771883 543.480729,637 509.564541,637 Z" id="path-1"></path>
    </defs>
    <g id="icon" stroke="none" stroke-width="1" fill="none" fill-rule="evenodd">
        <g id="Path" fill-rule="nonzero" stroke-linejoin="square">
            <path stroke="#FFFFFF" stroke-width="12" d="M509.564541,631 C542.757705,631 572.23184,625.900485 598.01689,615.733709 C623.463663,605.700313 643.442598,590.296012 658.089883,569.459349 C672.675869,548.709887 680,522.963697 680,492.053521 L680,267.602817 C680,265.241513 679.198353,263.338896 677.429098,261.570844 C675.659061,259.80201 673.75299,259 671.387247,259 L385.085537,259 C382.719794,259 380.813723,259.80201 379.043686,261.570844 C377.274431,263.338896 376.472784,265.241513 376.472784,267.602817 L376.472784,348.188732 C376.472784,350.550036 377.274431,352.452653 379.043686,354.220705 C380.813723,355.989539 382.719794,356.791549 385.085537,356.791549 L551.825816,356.791549 L551.825816,487.726761 C551.825816,504.83918 548.819445,517.357208 542.366897,525.30994 C535.744517,533.471989 526.074061,537.535211 513.894246,537.535211 C504.438884,537.535211 496.834583,535.608666 491.176936,531.53795 C485.700677,527.597745 481.047545,521.191117 477.075646,512.457614 C474.50816,507.005416 471.964416,503.23091 469.605661,501.151071 C467.753142,499.517606 464.735172,498.594366 460.314152,498.594366 L349.906687,498.594366 C348.259387,498.594366 346.985752,499.128107 345.759082,500.353942 C344.533191,501.579 344,502.849591 343.99948,504.413964 C344.343141,530.514446 352.020365,552.933745 367.05505,571.885056 C382.267567,591.060525 402.340584,605.672737 427.375657,615.749452 C452.626854,625.913157 480.009178,631 509.564541,631 Z" fill="#222222" fill-rule="evenodd"></path>
            <path stroke="#222222" stroke-width="8" d="M509.564541,633 C542.998713,633 572.720612,627.857618 598.750503,617.594304 C624.554876,607.41991 644.849731,591.772026 659.72607,570.609519 C674.561543,549.505146 682,523.357072 682,492.053521 L682,267.602817 C682,264.706542 680.984495,262.296358 678.84283,260.156149 C676.700644,258.01542 674.287381,257 671.387247,257 L385.085537,257 C382.185403,257 379.772139,258.01542 377.629953,260.156149 C375.488289,262.296358 374.472784,264.706542 374.472784,267.602817 L374.472784,348.188732 C374.472784,351.085007 375.488289,353.495191 377.629953,355.6354 C379.772139,357.776129 382.185403,358.791549 385.085537,358.791549 L549.825816,358.791549 L549.825816,487.726761 C549.825816,504.423329 546.919556,516.524513 540.813805,524.049819 C534.594832,531.71467 525.501958,535.535211 513.894246,535.535211 C504.824465,535.535211 497.620164,533.710006 492.345018,529.914502 C487.190805,526.206011 482.735697,520.072031 478.88506,511.605545 C476.211241,505.927544 473.523198,501.938921 470.928398,499.650948 C468.671089,497.660559 465.185821,496.594366 460.314152,496.594366 L349.906687,496.594366 C347.726059,496.594366 345.944884,497.340802 344.34535,498.939248 C342.746333,500.537178 342,502.315685 341.999653,504.440295 C342.349031,530.974934 350.173218,553.823402 365.48823,573.128066 C380.921795,592.582167 401.279371,607.401525 426.628872,617.604799 C452.122456,627.866066 479.758272,633 509.564541,633 Z"></path>
        </g>
        <text id="Journeys" fill="#222222" font-family="Roboto-Thin, Roboto" font-size="100" font-weight="300">
            <tspan x="311.609375" y="789">Journeys</tspan>
        </text>
    </g>
</svg>