<?xml version="1.0" encoding="UTF-8"?>
<svg width="512px" height="512px" viewBox="0 0 512 512" version="1.1" xmlns="http://www.w3.org/2000/svg" xmlns:xlink="http://www.w3.org/1999/xlink">
    <!-- Generator: Sketch 59.1 (86144) - https://sketch.com -->
    <title>settings</title>
    <desc>Created with Sketch.</desc>
    <g id="Page-1" stroke="none" stroke-width="1" fill="none" fill-rule="evenodd">
        <g id="Artboard" fill="#CCCCCC" fill-rule="nonzero">
            <g id="settings">
                <path d="M262.785,317.207 C260.872,313.175 256.049,311.455 252.016,313.37 C245.454,316.484 238.574,319.058 231.568,321.018 C228.637,321.838 226.416,324.233 225.82,327.218 L217.268,369.976 C216.424,374.198 212.686,377.263 208.38,377.263 L185.051,377.263 C180.745,377.263 177.008,374.199 176.163,369.976 L167.611,327.218 C167.014,324.233 164.792,321.838 161.863,321.018 C151.965,318.248 142.413,314.29 133.472,309.254 C130.819,307.76 127.552,307.883 125.02,309.571 L88.734,333.761 C85.152,336.149 80.342,335.672 77.296,332.628 L60.8,316.131 C57.755,313.086 57.28,308.276 59.667,304.693 L83.857,268.407 C85.546,265.874 85.669,262.608 84.174,259.955 C79.137,251.013 75.179,241.46 72.41,231.564 C71.59,228.633 69.195,226.412 66.21,225.816 L23.452,217.264 C19.23,216.42 16.165,212.682 16.165,208.376 L16.165,185.047 C16.165,180.741 19.229,177.004 23.452,176.159 L66.21,167.607 C69.195,167.01 71.59,164.788 72.41,161.859 C75.18,151.961 79.138,142.409 84.174,133.468 C85.668,130.816 85.545,127.549 83.857,125.016 L59.669,88.734 C57.281,85.151 57.757,80.342 60.802,77.296 L77.298,60.8 C80.343,57.755 85.154,57.28 88.736,59.667 L125.022,83.857 C127.554,85.546 130.822,85.668 133.474,84.174 C142.415,79.138 151.967,75.18 161.865,72.41 C164.796,71.59 167.017,69.195 167.613,66.21 L176.165,23.452 C177.009,19.23 180.747,16.165 185.053,16.165 L208.382,16.165 C212.688,16.165 216.425,19.229 217.27,23.452 L225.822,66.21 C226.419,69.195 228.641,71.59 231.57,72.41 C241.468,75.18 251.02,79.138 259.961,84.174 C262.614,85.668 265.881,85.545 268.413,83.857 L304.699,59.667 C308.281,57.279 313.09,57.756 316.137,60.8 L332.633,77.296 C335.678,80.341 336.153,85.151 333.766,88.734 L309.576,125.02 C307.887,127.553 307.764,130.819 309.259,133.472 C314.295,142.413 318.253,151.965 321.023,161.863 C321.843,164.794 324.238,167.015 327.223,167.611 L369.981,176.163 C374.203,177.007 377.268,180.745 377.268,185.051 L377.268,208.38 C377.268,212.686 374.204,216.423 369.981,217.268 L327.223,225.82 C324.238,226.417 321.843,228.639 321.023,231.57 C319.014,238.75 316.363,245.793 313.143,252.504 C311.211,256.529 312.909,261.358 316.934,263.289 C320.959,265.222 325.789,263.523 327.719,259.498 C330.625,253.441 333.12,247.144 335.161,240.721 L373.152,233.123 C384.901,230.771 393.431,220.365 393.431,208.379 L393.431,185.05 C393.431,173.064 384.901,162.659 373.147,160.307 L335.157,152.709 C332.665,144.865 329.507,137.239 325.723,129.94 L347.215,97.701 C353.863,87.728 352.538,74.338 344.062,65.862 L327.566,49.366 C319.089,40.89 305.699,39.566 295.727,46.213 L263.488,67.705 C256.189,63.922 248.563,60.763 240.719,58.271 L233.121,20.281 C230.772,8.53 220.366,0 208.38,0 L185.051,0 C173.065,0 162.66,8.53 160.308,20.284 L152.71,58.274 C144.866,60.766 137.24,63.924 129.941,67.708 L97.704,46.216 C87.732,39.568 74.341,40.892 65.865,49.369 L49.369,65.865 C40.894,74.341 39.568,87.73 46.216,97.704 L67.708,129.943 C63.925,137.242 60.766,144.867 58.274,152.712 L20.283,160.31 C8.53,162.66 0,173.066 0,185.052 L0,208.381 C0,220.367 8.53,230.772 20.284,233.124 L58.274,240.722 C60.765,248.565 63.924,256.191 67.708,263.491 L46.216,295.73 C39.568,305.703 40.893,319.093 49.369,327.569 L65.865,344.065 C74.341,352.541 87.731,353.865 97.704,347.218 L129.943,325.726 C137.242,329.509 144.867,332.668 152.712,335.16 L160.31,373.152 C162.66,384.902 173.066,393.433 185.052,393.433 L208.381,393.433 C220.367,393.433 230.772,384.903 233.124,373.149 L240.722,335.159 C246.951,333.18 253.065,330.773 258.95,327.979 C262.983,326.063 264.701,321.241 262.785,317.207 Z" id="Path"></path>
                <path d="M266.739,241.636 C267.919,242.242 269.179,242.529 270.421,242.529 C273.357,242.529 276.19,240.924 277.621,238.132 C284.141,225.417 287.588,211.096 287.588,196.717 C287.588,146.61 246.823,105.844 196.715,105.844 C172.877,105.844 150.351,115.006 133.285,131.645 C130.088,134.761 130.023,139.88 133.139,143.076 C136.255,146.272 141.373,146.339 144.57,143.222 C158.599,129.546 177.117,122.013 196.713,122.013 C237.905,122.013 271.418,155.525 271.418,196.718 C271.418,208.712 268.664,220.164 263.233,230.756 C261.197,234.726 262.766,239.598 266.739,241.636 Z" id="Path"></path>
                <path d="M121.043,162.125 C116.82,160.672 112.222,162.917 110.769,167.139 C107.502,176.637 105.845,186.589 105.845,196.716 C105.845,246.824 146.611,287.589 196.718,287.589 C215.989,287.589 234.401,281.633 249.965,270.362 C253.581,267.743 254.39,262.688 251.772,259.072 C249.154,255.456 244.098,254.647 240.482,257.265 C227.694,266.524 212.561,271.419 196.717,271.419 C155.524,271.419 122.012,237.906 122.012,196.714 C122.012,188.38 123.372,180.197 126.056,172.396 C127.508,168.175 125.264,163.576 121.043,162.125 Z" id="Path"></path>
                <path d="M496.442,353.316 L473.065,348.641 C471.641,344.404 469.926,340.267 467.938,336.268 L481.164,316.43 C486.263,308.78 485.247,298.51 478.746,292.01 L467.906,281.17 C461.405,274.67 451.135,273.653 443.486,278.752 L423.648,291.978 C419.649,289.99 415.512,288.275 411.275,286.852 L406.6,263.475 C404.797,254.46 396.816,247.917 387.623,247.917 L372.292,247.917 C363.1,247.917 355.118,254.46 353.315,263.475 L348.64,286.852 C344.403,288.276 340.266,289.991 336.267,291.978 L316.429,278.752 C308.779,273.654 298.509,274.669 292.009,281.17 L281.169,292.01 C274.668,298.511 273.652,308.781 278.751,316.43 L291.977,336.268 C289.243,341.766 287.028,347.524 285.372,353.445 C284.169,357.745 286.68,362.205 290.979,363.409 C295.279,364.612 299.739,362.102 300.943,357.802 C302.703,351.51 305.219,345.44 308.419,339.759 C309.913,337.106 309.79,333.839 308.102,331.307 L292.205,307.462 C291.366,306.203 291.533,304.513 292.603,303.443 L303.443,292.603 C304.513,291.534 306.203,291.368 307.462,292.205 L331.307,308.102 C333.839,309.791 337.106,309.913 339.759,308.419 C345.441,305.219 351.51,302.703 357.802,300.943 C360.733,300.123 362.954,297.728 363.55,294.743 L369.169,266.646 C369.465,265.163 370.779,264.086 372.292,264.086 L387.623,264.086 C389.135,264.086 390.449,265.163 390.746,266.646 L396.365,294.745 C396.962,297.73 399.184,300.125 402.113,300.945 C408.405,302.705 414.475,305.221 420.156,308.421 C422.808,309.915 426.076,309.792 428.608,308.104 L452.453,292.207 C453.712,291.368 455.402,291.534 456.472,292.605 L467.312,303.445 C468.381,304.515 468.548,306.205 467.71,307.464 L451.813,331.309 C450.124,333.842 450.001,337.108 451.496,339.761 C454.696,345.443 457.212,351.512 458.972,357.804 C459.792,360.735 462.187,362.956 465.172,363.552 L493.269,369.171 C494.752,369.467 495.829,370.781 495.829,372.294 L495.829,387.625 C495.829,389.137 494.752,390.451 493.269,390.748 L465.17,396.367 C462.185,396.964 459.79,399.186 458.97,402.115 C457.21,408.407 454.694,414.477 451.494,420.158 C450,422.811 450.123,426.078 451.811,428.61 L467.708,452.455 C468.547,453.714 468.38,455.404 467.31,456.474 L456.47,467.314 C455.401,468.384 453.711,468.55 452.451,467.712 L428.606,451.815 C426.074,450.127 422.806,450.004 420.154,451.498 C414.472,454.698 408.403,457.214 402.111,458.974 C399.18,459.794 396.959,462.189 396.363,465.174 L390.744,493.271 C390.448,494.754 389.134,495.831 387.621,495.831 L372.29,495.831 C370.778,495.831 369.464,494.754 369.167,493.271 L363.548,465.172 C362.951,462.187 360.729,459.792 357.8,458.972 C351.508,457.212 345.438,454.696 339.757,451.496 C337.104,450.002 333.836,450.125 331.305,451.813 L307.46,467.71 C306.201,468.549 304.511,468.383 303.441,467.312 L292.601,456.472 C291.532,455.402 291.365,453.712 292.203,452.453 L308.1,428.608 C309.789,426.075 309.912,422.809 308.417,420.156 C305.217,414.474 302.701,408.405 300.941,402.113 C300.121,399.182 297.726,396.961 294.741,396.365 L266.644,390.746 C265.161,390.45 264.084,389.136 264.084,387.623 L264.084,372.292 C264.084,370.78 265.161,369.466 266.644,369.169 L268.364,368.825 C272.742,367.949 275.582,363.69 274.705,359.312 C273.829,354.934 269.575,352.099 265.191,352.971 L263.471,353.315 C254.458,355.119 247.915,363.1 247.915,372.293 L247.915,387.624 C247.915,396.816 254.458,404.798 263.473,406.601 L286.85,411.276 C288.274,415.513 289.989,419.65 291.976,423.649 L278.75,443.487 C273.65,451.137 274.667,461.407 281.168,467.907 L292.008,478.747 C298.509,485.248 308.779,486.264 316.428,481.165 L336.266,467.939 C340.265,469.927 344.402,471.642 348.639,473.065 L353.314,496.442 C355.119,505.457 363.1,512 372.293,512 L387.624,512 C396.816,512 404.798,505.457 406.601,496.442 L411.276,473.065 C415.513,471.641 419.65,469.926 423.649,467.938 L443.487,481.164 C451.137,486.263 461.407,485.247 467.907,478.746 L478.747,467.906 C485.248,461.405 486.264,451.135 481.165,443.486 L467.939,423.648 C469.927,419.649 471.642,415.512 473.065,411.275 L496.442,406.6 C505.456,404.797 511.999,396.816 511.999,387.623 L511.999,372.292 C511.999,363.1 505.457,355.119 496.442,353.316 Z" id="Path"></path>
                <path d="M379.958,350.855 C396.006,350.855 409.061,363.91 409.061,379.958 C409.061,384.423 412.681,388.042 417.145,388.042 C421.609,388.042 425.229,384.422 425.229,379.958 C425.229,354.995 404.92,334.686 379.957,334.686 C354.994,334.686 334.685,354.995 334.685,379.958 C334.685,404.921 354.994,425.23 379.957,425.23 C390.068,425.23 399.632,421.969 407.616,415.801 C411.149,413.071 411.8,407.994 409.071,404.46 C406.341,400.927 401.263,400.275 397.73,403.005 C392.602,406.966 386.456,409.061 379.957,409.061 C363.909,409.061 350.854,396.006 350.854,379.958 C350.855,363.909 363.91,350.855 379.958,350.855 Z" id="Path"></path>
                <path d="M245.969,196.716 C245.969,169.558 223.873,147.463 196.716,147.463 C169.558,147.463 147.463,169.559 147.463,196.716 C147.463,223.874 169.558,245.969 196.716,245.969 C223.874,245.969 245.969,223.873 245.969,196.716 Z M163.631,196.716 C163.631,178.474 178.474,163.631 196.716,163.631 C214.958,163.631 229.801,178.474 229.801,196.716 C229.801,214.958 214.959,229.801 196.716,229.801 C178.472,229.801 163.631,214.958 163.631,196.716 Z" id="Shape"></path>
            </g>
        </g>
    </g>
</svg>